SubSource-HROTdd_VROTx_SLENn_SANGx.ufo
<glyph name="exclam" format="2">
  <advance width="261"/>
  <unicode hex="0021"/>
  <outline>
    <contour>
      <point x="177" y="526" type="curve" smooth="yes"/>
      <point x="177" y="275" type="line" smooth="yes"/>
      <point x="177" y="208"/>
      <point x="87" y="208"/>
      <point x="87" y="275" type="curve" smooth="yes"/>
      <point x="87" y="526" type="line" smooth="yes"/>
      <point x="87" y="594"/>
      <point x="177" y="594"/>
    </contour>
    <contour>
      <point x="136" y="57" type="curve" smooth="yes"/>
      <point x="48" y="65"/>
      <point x="47" y="167"/>
      <point x="135" y="178" type="curve" smooth="yes"/>
      <point x="202" y="186"/>
      <point x="212" y="96"/>
      <point x="145" y="88" type="curve" smooth="yes"/>
      <point x="143" y="88"/>
      <point x="141" y="147"/>
      <point x="144" y="147" type="curve" smooth="yes"/>
      <point x="211" y="141"/>
      <point x="203" y="51"/>
    </contour>
  </outline>
</glyph>
<glyph name="parenleft" format="2">
  <advance width="452"/>
  <unicode hex="0028"/>
  <outline>
    <contour>
      <point x="383" y="-64" type="curve" smooth="yes"/>
      <point x="327" y="-54"/>
      <point x="272" y="-32"/>
      <point x="225" y="0" type="curve" smooth="yes"/>
      <point x="135" y="60"/>
      <point x="69" y="159"/>
      <point x="69" y="291" type="curve" smooth="yes"/>
      <point x="69" y="425"/>
      <point x="135" y="523"/>
      <point x="225" y="583" type="curve" smooth="yes"/>
      <point x="272" y="615"/>
      <point x="326" y="636"/>
      <point x="382" y="647" type="curve" smooth="yes"/>
      <point x="448" y="660"/>
      <point x="466" y="572"/>
      <point x="400" y="559" type="curve" smooth="yes"/>
      <point x="356" y="550"/>
      <point x="312" y="533"/>
      <point x="275" y="509" type="curve" smooth="yes"/>
      <point x="207" y="463"/>
      <point x="159" y="391"/>
      <point x="159" y="291" type="curve" smooth="yes"/>
      <point x="159" y="191"/>
      <point x="207" y="120"/>
      <point x="275" y="74" type="curve" smooth="yes"/>
      <point x="312" y="50"/>
      <point x="355" y="32"/>
      <point x="399" y="24" type="curve" smooth="yes"/>
      <point x="465" y="12"/>
      <point x="449" y="-76"/>
    </contour>
  </outline>
</glyph>
<glyph name="parenright" format="2">
  <advance width="452"/>
  <unicode hex="0029"/>
  <outline>
    <contour>
      <point x="69" y="648" type="curve" smooth="yes"/>
      <point x="232" y="616"/>
      <point x="382" y="495"/>
      <point x="382" y="292" type="curve" smooth="yes"/>
      <point x="382" y="89"/>
      <point x="232" y="-31"/>
      <point x="69" y="-64" type="curve" smooth="yes"/>
      <point x="3" y="-77"/>
      <point x="-15" y="11"/>
      <point x="51" y="24" type="curve" smooth="yes"/>
      <point x="176" y="49"/>
      <point x="292" y="137"/>
      <point x="292" y="292" type="curve" smooth="yes"/>
      <point x="292" y="447"/>
      <point x="176" y="536"/>
      <point x="51" y="560" type="curve" smooth="yes"/>
      <point x="-15" y="573"/>
      <point x="2" y="661"/>
    </contour>
  </outline>
</glyph>
<glyph name="eight" format="2">
  <advance width="535"/>
  <unicode hex="0038"/>
  <outline>
    <contour>
      <point x="202" y="60" type="curve" smooth="yes"/>
      <point x="102" y="79"/>
      <point x="45" y="140"/>
      <point x="45" y="216" type="curve" smooth="yes"/>
      <point x="45" y="312"/>
      <point x="136" y="372"/>
      <point x="269" y="372" type="curve" smooth="yes"/>
      <point x="322" y="372"/>
      <point x="380" y="389"/>
      <point x="380" y="424" type="curve" smooth="yes"/>
      <point x="380" y="462"/>
      <point x="325" y="484"/>
      <point x="269" y="484" type="curve" smooth="yes"/>
      <point x="212" y="484"/>
      <point x="156" y="462"/>
      <point x="156" y="424" type="curve" smooth="yes"/>
      <point x="156" y="387"/>
      <point x="214" y="372"/>
      <point x="268" y="372" type="curve" smooth="yes"/>
      <point x="401" y="372"/>
      <point x="490" y="312"/>
      <point x="490" y="216" type="curve" smooth="yes"/>
      <point x="490" y="139"/>
      <point x="431" y="76"/>
      <point x="332" y="59" type="curve" smooth="yes"/>
      <point x="265" y="47"/>
      <point x="250" y="136"/>
      <point x="316" y="147" type="curve" smooth="yes"/>
      <point x="364" y="156"/>
      <point x="400" y="179"/>
      <point x="400" y="216" type="curve" smooth="yes"/>
      <point x="400" y="263"/>
      <point x="334" y="282"/>
      <point x="268" y="282" type="curve" smooth="yes"/>
      <point x="144" y="282"/>
      <point x="66" y="338"/>
      <point x="66" y="424" type="curve" smooth="yes"/>
      <point x="66" y="506"/>
      <point x="145" y="574"/>
      <point x="269" y="574" type="curve" smooth="yes"/>
      <point x="392" y="574"/>
      <point x="470" y="508"/>
      <point x="470" y="424" type="curve" smooth="yes"/>
      <point x="470" y="343"/>
      <point x="393" y="282"/>
      <point x="269" y="282" type="curve" smooth="yes"/>
      <point x="204" y="282"/>
      <point x="135" y="263"/>
      <point x="135" y="216" type="curve" smooth="yes"/>
      <point x="135" y="179"/>
      <point x="171" y="157"/>
      <point x="218" y="148" type="curve" smooth="yes"/>
      <point x="285" y="136"/>
      <point x="268" y="47"/>
    </contour>
  </outline>
</glyph>
<glyph name="colon" format="2">
  <advance width="260"/>
  <unicode hex="003A"/>
  <outline>
    <contour>
      <point x="135" y="59" type="curve" smooth="yes"/>
      <point x="47" y="70"/>
      <point x="48" y="172"/>
      <point x="136" y="180" type="curve" smooth="yes"/>
      <point x="203" y="186"/>
      <point x="211" y="96"/>
      <point x="144" y="90" type="curve" smooth="yes"/>
      <point x="141" y="90"/>
      <point x="143" y="149"/>
      <point x="145" y="149" type="curve" smooth="yes"/>
      <point x="212" y="141"/>
      <point x="202" y="51"/>
    </contour>
    <contour>
      <point x="136" y="314" type="curve" smooth="yes"/>
      <point x="48" y="322"/>
      <point x="47" y="424"/>
      <point x="135" y="435" type="curve" smooth="yes"/>
      <point x="202" y="443"/>
      <point x="212" y="353"/>
      <point x="145" y="345" type="curve" smooth="yes"/>
      <point x="143" y="345"/>
      <point x="141" y="404"/>
      <point x="144" y="404" type="curve" smooth="yes"/>
      <point x="211" y="398"/>
      <point x="203" y="308"/>
    </contour>
  </outline>
</glyph>
<glyph name="semicolon" format="2">
  <advance width="279"/>
  <unicode hex="003B"/>
  <outline>
    <contour>
      <point x="141" y="314" type="curve" smooth="yes"/>
      <point x="53" y="322"/>
      <point x="52" y="424"/>
      <point x="140" y="435" type="curve" smooth="yes"/>
      <point x="207" y="443"/>
      <point x="217" y="353"/>
      <point x="150" y="345" type="curve" smooth="yes"/>
      <point x="148" y="345"/>
      <point x="146" y="404"/>
      <point x="149" y="404" type="curve" smooth="yes"/>
      <point x="216" y="398"/>
      <point x="208" y="308"/>
    </contour>
    <contour>
      <point x="80" y="24" type="curve" smooth="yes"/>
      <point x="96" y="42"/>
      <point x="121" y="85"/>
      <point x="104" y="95" type="curve" smooth="yes"/>
      <point x="48" y="132"/>
      <point x="97" y="208"/>
      <point x="154" y="171" type="curve" smooth="yes"/>
      <point x="219" y="128"/>
      <point x="212" y="42"/>
      <point x="150" y="-34" type="curve" smooth="yes"/>
      <point x="107" y="-86"/>
      <point x="37" y="-29"/>
    </contour>
  </outline>
</glyph>
<glyph name="greater" format="2">
  <advance width="447"/>
  <unicode hex="003E"/>
  <outline>
    <contour>
      <point x="72" y="214" type="curve" smooth="yes"/>
      <point x="349" y="331" type="line"/>
      <point x="349" y="249" type="line"/>
      <point x="72" y="369" type="line" smooth="yes"/>
      <point x="10" y="396"/>
      <point x="46" y="478"/>
      <point x="108" y="451" type="curve" smooth="yes"/>
      <point x="385" y="331" type="line" smooth="yes"/>
      <point x="421" y="316"/>
      <point x="421" y="264"/>
      <point x="385" y="249" type="curve" smooth="yes"/>
      <point x="108" y="132" type="line" smooth="yes"/>
      <point x="45" y="105"/>
      <point x="10" y="188"/>
    </contour>
  </outline>
</glyph>
<glyph name="question" format="2">
  <advance width="511"/>
  <unicode hex="003F"/>
  <outline>
    <contour>
      <point x="75" y="548" type="curve" smooth="yes"/>
      <point x="133" y="565"/>
      <point x="190" y="573"/>
      <point x="241" y="573" type="curve" smooth="yes"/>
      <point x="388" y="573"/>
      <point x="472" y="511"/>
      <point x="472" y="433" type="curve" smooth="yes"/>
      <point x="472" y="379"/>
      <point x="429" y="325"/>
      <point x="333" y="298" type="curve" smooth="yes"/>
      <point x="291" y="285"/>
      <point x="271" y="278"/>
      <point x="271" y="261" type="curve" smooth="yes"/>
      <point x="271" y="194"/>
      <point x="181" y="194"/>
      <point x="181" y="261" type="curve" smooth="yes"/>
      <point x="181" y="307"/>
      <point x="192" y="349"/>
      <point x="309" y="384" type="curve" smooth="yes"/>
      <point x="342" y="394"/>
      <point x="382" y="414"/>
      <point x="382" y="433" type="curve" smooth="yes"/>
      <point x="382" y="464"/>
      <point x="300" y="483"/>
      <point x="241" y="483" type="curve" smooth="yes"/>
      <point x="198" y="483"/>
      <point x="149" y="477"/>
      <point x="101" y="462" type="curve" smooth="yes"/>
      <point x="36" y="442"/>
      <point x="10" y="529"/>
    </contour>
    <contour>
      <point x="182" y="99" type="curve" smooth="yes"/>
      <point x="182" y="111"/>
      <point x="182" y="128"/>
      <point x="182" y="137" type="curve" smooth="yes"/>
      <point x="182" y="205"/>
      <point x="272" y="205"/>
      <point x="272" y="137" type="curve" smooth="yes"/>
      <point x="272" y="124"/>
      <point x="272" y="107"/>
      <point x="272" y="99" type="curve" smooth="yes"/>
      <point x="272" y="32"/>
      <point x="182" y="32"/>
    </contour>
  </outline>
</glyph>
<glyph name="K" format="2">
  <advance width="591"/>
  <unicode hex="004B"/>
  <outline>
    <contour>
      <point x="170" y="528" type="curve" smooth="yes"/>
      <point x="170" y="490"/>
      <point x="170" y="460"/>
      <point x="170" y="435" type="curve" smooth="yes"/>
      <point x="170" y="330"/>
      <point x="170" y="249"/>
      <point x="170" y="179" type="curve" smooth="yes"/>
      <point x="170" y="149"/>
      <point x="170" y="121"/>
      <point x="170" y="104" type="curve" smooth="yes"/>
      <point x="170" y="36"/>
      <point x="80" y="37"/>
      <point x="80" y="104" type="curve" smooth="yes"/>
      <point x="80" y="130"/>
      <point x="80" y="159"/>
      <point x="80" y="179" type="curve" smooth="yes"/>
      <point x="80" y="284"/>
      <point x="80" y="365"/>
      <point x="80" y="435" type="curve" smooth="yes"/>
      <point x="80" y="473"/>
      <point x="80" y="503"/>
      <point x="80" y="528" type="curve" smooth="yes"/>
      <point x="80" y="596"/>
      <point x="170" y="596"/>
    </contour>
    <contour>
      <point x="532" y="490" type="curve" smooth="yes"/>
      <point x="490" y="463"/>
      <point x="451" y="437"/>
      <point x="408" y="411" type="curve" smooth="yes"/>
      <point x="375" y="391"/>
      <point x="297" y="344"/>
      <point x="264" y="324" type="curve" smooth="yes"/>
      <point x="259" y="320"/>
      <point x="275" y="317"/>
      <point x="280" y="314" type="curve" smooth="yes"/>
      <point x="335" y="279"/>
      <point x="458" y="197"/>
      <point x="539" y="141" type="curve" smooth="yes"/>
      <point x="594" y="102"/>
      <point x="542" y="28"/>
      <point x="487" y="67" type="curve" smooth="yes"/>
      <point x="408" y="123"/>
      <point x="285" y="203"/>
      <point x="232" y="238" type="curve" smooth="yes"/>
      <point x="138" y="297"/>
      <point x="123" y="345"/>
      <point x="218" y="400" type="curve" smooth="yes"/>
      <point x="251" y="420"/>
      <point x="327" y="467"/>
      <point x="362" y="489" type="curve" smooth="yes"/>
      <point x="403" y="513"/>
      <point x="442" y="539"/>
      <point x="482" y="566" type="curve" smooth="yes"/>
      <point x="539" y="603"/>
      <point x="588" y="528"/>
    </contour>
  </outline>
</glyph>
<glyph name="N" format="2">
  <advance width="688"/>
  <unicode hex="004E"/>
  <outline>
    <contour>
      <point x="80" y="102" type="curve" smooth="yes"/>
      <point x="80" y="136"/>
      <point x="80" y="165"/>
      <point x="80" y="189" type="curve" smooth="yes"/>
      <point x="80" y="254"/>
      <point x="80" y="328"/>
      <point x="80" y="383" type="curve" smooth="yes"/>
      <point x="80" y="417"/>
      <point x="80" y="443"/>
      <point x="80" y="461" type="curve" smooth="yes"/>
      <point x="80" y="573"/>
      <point x="125" y="598"/>
      <point x="220" y="505" type="curve" smooth="yes"/>
      <point x="237" y="488"/>
      <point x="258" y="467"/>
      <point x="282" y="444" type="curve" smooth="yes"/>
      <point x="341" y="382"/>
      <point x="412" y="310"/>
      <point x="471" y="251" type="curve" smooth="yes"/>
      <point x="493" y="227"/>
      <point x="513" y="208"/>
      <point x="531" y="190" type="curve" smooth="yes"/>
      <point x="535" y="185"/>
      <point x="518" y="167"/>
      <point x="518" y="173" type="curve" smooth="yes"/>
      <point x="518" y="191"/>
      <point x="518" y="213"/>
      <point x="518" y="233" type="curve" smooth="yes"/>
      <point x="518" y="312"/>
      <point x="518" y="394"/>
      <point x="518" y="438" type="curve" smooth="yes"/>
      <point x="518" y="473"/>
      <point x="518" y="502"/>
      <point x="518" y="526" type="curve" smooth="yes"/>
      <point x="518" y="594"/>
      <point x="608" y="594"/>
      <point x="608" y="526" type="curve" smooth="yes"/>
      <point x="608" y="491"/>
      <point x="608" y="462"/>
      <point x="608" y="438" type="curve" smooth="yes"/>
      <point x="608" y="372"/>
      <point x="608" y="286"/>
      <point x="608" y="233" type="curve" smooth="yes"/>
      <point x="608" y="204"/>
      <point x="608" y="185"/>
      <point x="608" y="173" type="curve" smooth="yes"/>
      <point x="608" y="50"/>
      <point x="562" y="31"/>
      <point x="467" y="126" type="curve" smooth="yes"/>
      <point x="449" y="144"/>
      <point x="429" y="165"/>
      <point x="407" y="187" type="curve" smooth="yes"/>
      <point x="348" y="246"/>
      <point x="277" y="320"/>
      <point x="218" y="380" type="curve" smooth="yes"/>
      <point x="196" y="403"/>
      <point x="175" y="424"/>
      <point x="156" y="441" type="curve" smooth="yes"/>
      <point x="152" y="445"/>
      <point x="170" y="466"/>
      <point x="170" y="461" type="curve" smooth="yes"/>
      <point x="170" y="434"/>
      <point x="170" y="406"/>
      <point x="170" y="383" type="curve" smooth="yes"/>
      <point x="170" y="301"/>
      <point x="170" y="232"/>
      <point x="170" y="189" type="curve" smooth="yes"/>
      <point x="170" y="154"/>
      <point x="170" y="125"/>
      <point x="170" y="102" type="curve" smooth="yes"/>
      <point x="170" y="35"/>
      <point x="80" y="35"/>
    </contour>
  </outline>
</glyph>
<glyph name="P" format="2">
  <advance width="555"/>
  <unicode hex="0050"/>
  <outline>
    <contour>
      <point x="225" y="329" type="curve" smooth="yes"/>
      <point x="252" y="329"/>
      <point x="279" y="329"/>
      <point x="307" y="329" type="curve" smooth="yes"/>
      <point x="373" y="329"/>
      <point x="430" y="356"/>
      <point x="430" y="403" type="curve" smooth="yes"/>
      <point x="430" y="450"/>
      <point x="370" y="477"/>
      <point x="295" y="477" type="curve" smooth="yes"/>
      <point x="258" y="477"/>
      <point x="231" y="477"/>
      <point x="206" y="477" type="curve" smooth="yes"/>
      <point x="180" y="477"/>
      <point x="170" y="480"/>
      <point x="170" y="462" type="curve" smooth="yes"/>
      <point x="170" y="355"/>
      <point x="170" y="264"/>
      <point x="170" y="199" type="curve" smooth="yes"/>
      <point x="170" y="160"/>
      <point x="170" y="128"/>
      <point x="170" y="102" type="curve" smooth="yes"/>
      <point x="170" y="34"/>
      <point x="80" y="35"/>
      <point x="80" y="102" type="curve" smooth="yes"/>
      <point x="80" y="141"/>
      <point x="80" y="173"/>
      <point x="80" y="199" type="curve" smooth="yes"/>
      <point x="80" y="295"/>
      <point x="80" y="390"/>
      <point x="80" y="462" type="curve" smooth="yes"/>
      <point x="80" y="529"/>
      <point x="109" y="567"/>
      <point x="206" y="567" type="curve" smooth="yes"/>
      <point x="243" y="567"/>
      <point x="270" y="567"/>
      <point x="295" y="567" type="curve" smooth="yes"/>
      <point x="438" y="567"/>
      <point x="520" y="494"/>
      <point x="520" y="403" type="curve" smooth="yes"/>
      <point x="520" y="311"/>
      <point x="436" y="239"/>
      <point x="307" y="239" type="curve" smooth="yes"/>
      <point x="266" y="239"/>
      <point x="243" y="239"/>
      <point x="225" y="239" type="curve" smooth="yes"/>
      <point x="158" y="239"/>
      <point x="158" y="329"/>
    </contour>
  </outline>
</glyph>
<glyph name="Q" format="2">
  <advance width="732"/>
  <unicode hex="0051"/>
  <outline>
    <contour>
      <point x="530" y="23" type="curve" smooth="yes"/>
      <point x="510" y="45"/>
      <point x="466" y="96"/>
      <point x="428" y="139" type="curve" smooth="yes"/>
      <point x="403" y="167"/>
      <point x="380" y="193"/>
      <point x="367" y="209" type="curve" smooth="yes"/>
      <point x="325" y="262"/>
      <point x="395" y="318"/>
      <point x="437" y="265" type="curve" smooth="yes"/>
      <point x="448" y="251"/>
      <point x="469" y="229"/>
      <point x="494" y="199" type="curve" smooth="yes"/>
      <point x="534" y="156"/>
      <point x="577" y="105"/>
      <point x="596" y="83" type="curve" smooth="yes"/>
      <point x="642" y="33"/>
      <point x="575" y="-27"/>
    </contour>
    <contour>
      <point x="397" y="54" type="curve" smooth="yes"/>
      <point x="199" y="40"/>
      <point x="45" y="152"/>
      <point x="45" y="314" type="curve" smooth="yes"/>
      <point x="45" y="462"/>
      <point x="176" y="574"/>
      <point x="368" y="574" type="curve" smooth="yes"/>
      <point x="559" y="574"/>
      <point x="687" y="462"/>
      <point x="687" y="314" type="curve" smooth="yes"/>
      <point x="687" y="250"/>
      <point x="661" y="191"/>
      <point x="618" y="144" type="curve" smooth="yes"/>
      <point x="555" y="74"/>
      <point x="471" y="89"/>
      <point x="428" y="140" type="curve" smooth="yes"/>
      <point x="415" y="154"/>
      <point x="395" y="178"/>
      <point x="370" y="205" type="curve" smooth="yes"/>
      <point x="324" y="255"/>
      <point x="390" y="316"/>
      <point x="436" y="267" type="curve" smooth="yes"/>
      <point x="463" y="238"/>
      <point x="483" y="214"/>
      <point x="496" y="198" type="curve" smooth="yes"/>
      <point x="510" y="182"/>
      <point x="531" y="182"/>
      <point x="552" y="204" type="curve" smooth="yes"/>
      <point x="579" y="235"/>
      <point x="597" y="272"/>
      <point x="597" y="314" type="curve" smooth="yes"/>
      <point x="597" y="417"/>
      <point x="501" y="484"/>
      <point x="368" y="484" type="curve" smooth="yes"/>
      <point x="235" y="484"/>
      <point x="135" y="417"/>
      <point x="135" y="314" type="curve" smooth="yes"/>
      <point x="135" y="201"/>
      <point x="253" y="134"/>
      <point x="391" y="144" type="curve" smooth="yes"/>
      <point x="458" y="149"/>
      <point x="465" y="59"/>
    </contour>
  </outline>
</glyph>
<glyph name="S" format="2">
  <advance width="521"/>
  <unicode hex="0053"/>
  <outline>
    <contour>
      <point x="116" y="171" type="curve" smooth="yes"/>
      <point x="165" y="155"/>
      <point x="214" y="148"/>
      <point x="258" y="148" type="curve" smooth="yes"/>
      <point x="316" y="148"/>
      <point x="384" y="164"/>
      <point x="384" y="205" type="curve" smooth="yes"/>
      <point x="384" y="244"/>
      <point x="298" y="266"/>
      <point x="253" y="279" type="curve" smooth="yes"/>
      <point x="143" y="311"/>
      <point x="63" y="341"/>
      <point x="63" y="432" type="curve" smooth="yes"/>
      <point x="63" y="517"/>
      <point x="140" y="575"/>
      <point x="271" y="575" type="curve" smooth="yes"/>
      <point x="316" y="576"/>
      <point x="368" y="570"/>
      <point x="423" y="554" type="curve" smooth="yes"/>
      <point x="488" y="536"/>
      <point x="464" y="449"/>
      <point x="399" y="468" type="curve" smooth="yes"/>
      <point x="354" y="480"/>
      <point x="310" y="486"/>
      <point x="271" y="485" type="curve" smooth="yes"/>
      <point x="213" y="485"/>
      <point x="153" y="470"/>
      <point x="153" y="432" type="curve" smooth="yes"/>
      <point x="153" y="397"/>
      <point x="236" y="377"/>
      <point x="277" y="365" type="curve" smooth="yes"/>
      <point x="386" y="334"/>
      <point x="474" y="300"/>
      <point x="474" y="205" type="curve" smooth="yes"/>
      <point x="474" y="114"/>
      <point x="387" y="58"/>
      <point x="258" y="58" type="curve" smooth="yes"/>
      <point x="206" y="58"/>
      <point x="147" y="67"/>
      <point x="88" y="85" type="curve" smooth="yes"/>
      <point x="24" y="105"/>
      <point x="51" y="191"/>
    </contour>
  </outline>
</glyph>
<glyph name="Z" format="2">
  <advance width="595"/>
  <unicode hex="005A"/>
  <outline>
    <contour>
      <point x="105" y="567" type="curve" smooth="yes"/>
      <point x="165" y="567"/>
      <point x="268" y="567"/>
      <point x="323" y="567" type="curve" smooth="yes"/>
      <point x="364" y="567"/>
      <point x="378" y="567"/>
      <point x="409" y="567" type="curve" smooth="yes"/>
      <point x="569" y="567"/>
      <point x="571" y="521"/>
      <point x="483" y="432" type="curve" smooth="yes"/>
      <point x="455" y="406"/>
      <point x="444" y="395"/>
      <point x="421" y="372" type="curve" smooth="yes"/>
      <point x="388" y="340"/>
      <point x="273" y="228"/>
      <point x="241" y="196" type="curve" smooth="yes"/>
      <point x="217" y="171"/>
      <point x="198" y="155"/>
      <point x="180" y="136" type="curve" smooth="yes"/>
      <point x="175" y="131"/>
      <point x="176" y="150"/>
      <point x="184" y="150" type="curve" smooth="yes"/>
      <point x="228" y="150"/>
      <point x="248" y="150"/>
      <point x="282" y="150" type="curve" smooth="yes"/>
      <point x="364" y="150"/>
      <point x="430" y="150"/>
      <point x="490" y="150" type="curve" smooth="yes"/>
      <point x="558" y="150"/>
      <point x="558" y="60"/>
      <point x="490" y="60" type="curve" smooth="yes"/>
      <point x="401" y="60"/>
      <point x="337" y="60"/>
      <point x="282" y="60" type="curve" smooth="yes"/>
      <point x="231" y="60"/>
      <point x="213" y="60"/>
      <point x="184" y="60" type="curve" smooth="yes"/>
      <point x="33" y="60"/>
      <point x="32" y="112"/>
      <point x="114" y="198" type="curve" smooth="yes"/>
      <point x="134" y="219"/>
      <point x="155" y="237"/>
      <point x="177" y="258" type="curve" smooth="yes"/>
      <point x="209" y="292"/>
      <point x="324" y="404"/>
      <point x="359" y="438" type="curve" smooth="yes"/>
      <point x="382" y="459"/>
      <point x="393" y="470"/>
      <point x="419" y="496" type="curve" smooth="yes"/>
      <point x="424" y="500"/>
      <point x="417" y="477"/>
      <point x="409" y="477" type="curve" smooth="yes"/>
      <point x="363" y="477"/>
      <point x="351" y="477"/>
      <point x="323" y="477" type="curve" smooth="yes"/>
      <point x="241" y="477"/>
      <point x="145" y="477"/>
      <point x="105" y="477" type="curve" smooth="yes"/>
      <point x="38" y="477"/>
      <point x="38" y="567"/>
    </contour>
  </outline>
</glyph>
<glyph name="underscore" format="2">
  <advance width="535"/>
  <unicode hex="005F"/>
  <outline>
    <contour>
      <point x="537" y="-24" type="curve" smooth="yes"/>
      <point x="319" y="-24"/>
      <point x="144" y="-24"/>
      <point x="-2" y="-24" type="curve" smooth="yes"/>
      <point x="-70" y="-24"/>
      <point x="-69" y="66"/>
      <point x="-2" y="66" type="curve" smooth="yes"/>
      <point x="216" y="66"/>
      <point x="391" y="66"/>
      <point x="537" y="66" type="curve" smooth="yes"/>
      <point x="605" y="66"/>
      <point x="605" y="-24"/>
    </contour>
  </outline>
</glyph>
<glyph name="k" format="2">
  <advance width="501"/>
  <unicode hex="006B"/>
  <outline>
    <contour>
      <point x="160" y="565" type="curve" smooth="yes"/>
      <point x="160" y="527"/>
      <point x="160" y="496"/>
      <point x="160" y="471" type="curve" smooth="yes"/>
      <point x="160" y="359"/>
      <point x="160" y="269"/>
      <point x="160" y="195" type="curve" smooth="yes"/>
      <point x="160" y="157"/>
      <point x="160" y="127"/>
      <point x="160" y="102" type="curve" smooth="yes"/>
      <point x="160" y="34"/>
      <point x="70" y="35"/>
      <point x="70" y="102" type="curve" smooth="yes"/>
      <point x="70" y="140"/>
      <point x="70" y="170"/>
      <point x="70" y="195" type="curve" smooth="yes"/>
      <point x="70" y="306"/>
      <point x="70" y="396"/>
      <point x="70" y="471" type="curve" smooth="yes"/>
      <point x="70" y="509"/>
      <point x="70" y="540"/>
      <point x="70" y="565" type="curve" smooth="yes"/>
      <point x="70" y="633"/>
      <point x="160" y="633"/>
    </contour>
    <contour>
      <point x="435" y="357" type="curve" smooth="yes"/>
      <point x="382" y="329"/>
      <point x="321" y="299"/>
      <point x="262" y="268" type="curve" smooth="yes"/>
      <point x="245" y="260"/>
      <point x="246" y="263"/>
      <point x="261" y="254" type="curve" smooth="yes"/>
      <point x="323" y="220"/>
      <point x="390" y="177"/>
      <point x="448" y="140" type="curve" smooth="yes"/>
      <point x="505" y="104"/>
      <point x="457" y="28"/>
      <point x="400" y="64" type="curve" smooth="yes"/>
      <point x="344" y="99"/>
      <point x="279" y="142"/>
      <point x="217" y="176" type="curve" smooth="yes"/>
      <point x="99" y="243"/>
      <point x="98" y="285"/>
      <point x="220" y="348" type="curve" smooth="yes"/>
      <point x="280" y="379"/>
      <point x="340" y="409"/>
      <point x="393" y="437" type="curve" smooth="yes"/>
      <point x="453" y="468"/>
      <point x="495" y="389"/>
    </contour>
  </outline>
</glyph>
<glyph name="r" format="2">
  <advance width="389"/>
  <unicode hex="0072"/>
  <outline>
    <contour>
      <point x="325" y="351" type="curve" smooth="yes"/>
      <point x="209" y="363"/>
      <point x="156" y="321"/>
      <point x="156" y="258" type="curve" smooth="yes"/>
      <point x="156" y="231"/>
      <point x="156" y="188"/>
      <point x="156" y="168" type="curve" smooth="yes"/>
      <point x="156" y="142"/>
      <point x="66" y="-97"/>
      <point x="66" y="165" type="curve" smooth="yes"/>
      <point x="66" y="204"/>
      <point x="66" y="242"/>
      <point x="66" y="267" type="curve" smooth="yes"/>
      <point x="66" y="319"/>
      <point x="66" y="359"/>
      <point x="66" y="394" type="curve" smooth="yes"/>
      <point x="66" y="462"/>
      <point x="156" y="462"/>
      <point x="156" y="394" type="curve" smooth="yes"/>
      <point x="156" y="342"/>
      <point x="156" y="302"/>
      <point x="156" y="267" type="curve" smooth="yes"/>
      <point x="156" y="230"/>
      <point x="156" y="191"/>
      <point x="156" y="165" type="curve" smooth="yes"/>
      <point x="156" y="139"/>
      <point x="66" y="-96"/>
      <point x="66" y="168" type="curve" smooth="yes"/>
      <point x="66" y="198"/>
      <point x="66" y="240"/>
      <point x="66" y="258" type="curve" smooth="yes"/>
      <point x="66" y="360"/>
      <point x="145" y="459"/>
      <point x="333" y="441" type="curve" smooth="yes"/>
      <point x="401" y="434"/>
      <point x="392" y="345"/>
    </contour>
  </outline>
</glyph>
<glyph name="s" format="2">
  <advance width="462"/>
  <unicode hex="0073"/>
  <outline>
    <contour>
      <point x="340" y="339" type="curve" smooth="yes"/>
      <point x="302" y="352"/>
      <point x="263" y="358"/>
      <point x="229" y="358" type="curve" smooth="yes"/>
      <point x="200" y="358"/>
      <point x="141" y="349"/>
      <point x="141" y="331" type="curve" smooth="yes"/>
      <point x="141" y="322"/>
      <point x="229" y="300"/>
      <point x="243" y="297" type="curve" smooth="yes"/>
      <point x="351" y="271"/>
      <point x="421" y="245"/>
      <point x="421" y="169" type="curve" smooth="yes"/>
      <point x="421" y="103"/>
      <point x="356" y="55"/>
      <point x="244" y="55" type="curve" smooth="yes"/>
      <point x="192" y="55"/>
      <point x="133" y="66"/>
      <point x="78" y="87" type="curve" smooth="yes"/>
      <point x="15" y="111"/>
      <point x="47" y="195"/>
      <point x="110" y="171" type="curve" smooth="yes"/>
      <point x="155" y="154"/>
      <point x="202" y="145"/>
      <point x="244" y="145" type="curve" smooth="yes"/>
      <point x="270" y="145"/>
      <point x="331" y="154"/>
      <point x="331" y="169" type="curve" smooth="yes"/>
      <point x="331" y="183"/>
      <point x="243" y="204"/>
      <point x="223" y="209" type="curve" smooth="yes"/>
      <point x="117" y="234"/>
      <point x="51" y="260"/>
      <point x="51" y="331" type="curve" smooth="yes"/>
      <point x="51" y="399"/>
      <point x="118" y="448"/>
      <point x="229" y="448" type="curve" smooth="yes"/>
      <point x="273" y="448"/>
      <point x="322" y="440"/>
      <point x="370" y="423" type="curve" smooth="yes"/>
      <point x="434" y="401"/>
      <point x="404" y="316"/>
    </contour>
  </outline>
</glyph>
<glyph name="t" format="2">
  <advance width="336"/>
  <unicode hex="0074"/>
  <outline>
    <contour>
      <point x="118" y="104" type="curve" smooth="yes"/>
      <point x="118" y="134"/>
      <point x="118" y="157"/>
      <point x="118" y="192" type="curve" smooth="yes"/>
      <point x="118" y="286"/>
      <point x="118" y="334"/>
      <point x="118" y="403" type="curve" smooth="yes"/>
      <point x="118" y="447"/>
      <point x="118" y="470"/>
      <point x="118" y="491" type="curve" smooth="yes"/>
      <point x="118" y="559"/>
      <point x="208" y="559"/>
      <point x="208" y="491" type="curve" smooth="yes"/>
      <point x="208" y="459"/>
      <point x="208" y="432"/>
      <point x="208" y="403" type="curve" smooth="yes"/>
      <point x="208" y="299"/>
      <point x="208" y="255"/>
      <point x="208" y="192" type="curve" smooth="yes"/>
      <point x="208" y="140"/>
      <point x="208" y="124"/>
      <point x="208" y="104" type="curve" smooth="yes"/>
      <point x="208" y="37"/>
      <point x="118" y="37"/>
    </contour>
    <contour>
      <point x="279" y="351" type="curve" smooth="yes"/>
      <point x="255" y="351"/>
      <point x="238" y="351"/>
      <point x="222" y="351" type="curve" smooth="yes"/>
      <point x="177" y="351"/>
      <point x="141" y="351"/>
      <point x="111" y="351" type="curve" smooth="yes"/>
      <point x="90" y="351"/>
      <point x="74" y="351"/>
      <point x="57" y="351" type="curve" smooth="yes"/>
      <point x="-11" y="351"/>
      <point x="-10" y="441"/>
      <point x="57" y="441" type="curve" smooth="yes"/>
      <point x="83" y="441"/>
      <point x="97" y="441"/>
      <point x="111" y="441" type="curve" smooth="yes"/>
      <point x="156" y="441"/>
      <point x="192" y="441"/>
      <point x="222" y="441" type="curve" smooth="yes"/>
      <point x="245" y="441"/>
      <point x="263" y="441"/>
      <point x="279" y="441" type="curve" smooth="yes"/>
      <point x="347" y="441"/>
      <point x="347" y="351"/>
    </contour>
  </outline>
</glyph>
<glyph name="z" format="2">
  <advance width="474"/>
  <unicode hex="007A"/>
  <outline>
    <contour>
      <point x="90" y="439" type="curve" smooth="yes"/>
      <point x="142" y="439"/>
      <point x="185" y="439"/>
      <point x="228" y="439" type="curve" smooth="yes"/>
      <point x="269" y="439"/>
      <point x="297" y="439"/>
      <point x="334" y="439" type="curve" smooth="yes"/>
      <point x="461" y="439"/>
      <point x="483" y="393"/>
      <point x="390" y="315" type="curve" smooth="yes"/>
      <point x="361" y="291"/>
      <point x="340" y="275"/>
      <point x="314" y="254" type="curve" smooth="yes"/>
      <point x="285" y="229"/>
      <point x="250" y="200"/>
      <point x="218" y="174" type="curve" smooth="yes"/>
      <point x="193" y="153"/>
      <point x="177" y="139"/>
      <point x="151" y="118" type="curve" smooth="yes"/>
      <point x="147" y="114"/>
      <point x="144" y="150"/>
      <point x="150" y="150" type="curve" smooth="yes"/>
      <point x="196" y="150"/>
      <point x="218" y="150"/>
      <point x="244" y="150" type="curve" smooth="yes"/>
      <point x="312" y="150"/>
      <point x="352" y="150"/>
      <point x="388" y="150" type="curve" smooth="yes"/>
      <point x="456" y="150"/>
      <point x="456" y="60"/>
      <point x="388" y="60" type="curve" smooth="yes"/>
      <point x="334" y="60"/>
      <point x="290" y="60"/>
      <point x="244" y="60" type="curve" smooth="yes"/>
      <point x="205" y="60"/>
      <point x="181" y="60"/>
      <point x="150" y="60" type="curve" smooth="yes"/>
      <point x="14" y="60"/>
      <point x="3" y="111"/>
      <point x="93" y="186" type="curve" smooth="yes"/>
      <point x="119" y="209"/>
      <point x="135" y="223"/>
      <point x="160" y="242" type="curve" smooth="yes"/>
      <point x="190" y="268"/>
      <point x="225" y="297"/>
      <point x="258" y="324" type="curve" smooth="yes"/>
      <point x="284" y="345"/>
      <point x="303" y="361"/>
      <point x="332" y="385" type="curve" smooth="yes"/>
      <point x="337" y="388"/>
      <point x="340" y="349"/>
      <point x="334" y="349" type="curve" smooth="yes"/>
      <point x="279" y="349"/>
      <point x="256" y="349"/>
      <point x="228" y="349" type="curve" smooth="yes"/>
      <point x="165" y="349"/>
      <point x="125" y="349"/>
      <point x="90" y="349" type="curve" smooth="yes"/>
      <point x="23" y="349"/>
      <point x="23" y="439"/>
    </contour>
  </outline>
</glyph>
<glyph name="currency" format="2">
  <advance width="646"/>
  <unicode hex="00A4"/>
  <outline>
    <contour>
      <point x="254" y="166" type="curve" smooth="yes"/>
      <point x="168" y="187"/>
      <point x="116" y="247"/>
      <point x="116" y="320" type="curve" smooth="yes"/>
      <point x="116" y="410"/>
      <point x="196" y="481"/>
      <point x="321" y="481" type="curve" smooth="yes"/>
      <point x="447" y="481"/>
      <point x="529" y="410"/>
      <point x="529" y="320" type="curve" smooth="yes"/>
      <point x="529" y="247"/>
      <point x="475" y="187"/>
      <point x="389" y="166" type="curve" smooth="yes"/>
      <point x="324" y="151"/>
      <point x="303" y="238"/>
      <point x="369" y="254" type="curve" smooth="yes"/>
      <point x="408" y="263"/>
      <point x="439" y="286"/>
      <point x="439" y="320" type="curve" smooth="yes"/>
      <point x="439" y="365"/>
      <point x="384" y="391"/>
      <point x="321" y="391" type="curve" smooth="yes"/>
      <point x="258" y="391"/>
      <point x="206" y="365"/>
      <point x="206" y="320" type="curve" smooth="yes"/>
      <point x="206" y="286"/>
      <point x="235" y="263"/>
      <point x="274" y="254" type="curve" smooth="yes"/>
      <point x="340" y="238"/>
      <point x="319" y="151"/>
    </contour>
    <contour>
      <point x="165" y="375" type="curve" smooth="yes"/>
      <point x="136" y="396"/>
      <point x="105" y="418"/>
      <point x="74" y="439" type="curve" smooth="yes"/>
      <point x="19" y="478"/>
      <point x="71" y="552"/>
      <point x="126" y="513" type="curve" smooth="yes"/>
      <point x="155" y="492"/>
      <point x="186" y="470"/>
      <point x="217" y="449" type="curve" smooth="yes"/>
      <point x="272" y="410"/>
      <point x="220" y="336"/>
    </contour>
    <contour>
      <point x="573" y="439" type="curve" smooth="yes"/>
      <point x="542" y="418"/>
      <point x="511" y="396"/>
      <point x="482" y="375" type="curve" smooth="yes"/>
      <point x="427" y="336"/>
      <point x="375" y="410"/>
      <point x="430" y="449" type="curve" smooth="yes"/>
      <point x="461" y="470"/>
      <point x="492" y="492"/>
      <point x="521" y="513" type="curve" smooth="yes"/>
      <point x="576" y="552"/>
      <point x="628" y="478"/>
    </contour>
    <contour>
      <point x="74" y="198" type="curve" smooth="yes"/>
      <point x="105" y="219"/>
      <point x="136" y="241"/>
      <point x="165" y="262" type="curve" smooth="yes"/>
      <point x="220" y="301"/>
      <point x="272" y="227"/>
      <point x="217" y="188" type="curve" smooth="yes"/>
      <point x="186" y="167"/>
      <point x="155" y="145"/>
      <point x="126" y="124" type="curve" smooth="yes"/>
      <point x="71" y="85"/>
      <point x="19" y="159"/>
    </contour>
    <contour>
      <point x="482" y="262" type="curve" smooth="yes"/>
      <point x="511" y="241"/>
      <point x="542" y="219"/>
      <point x="573" y="198" type="curve" smooth="yes"/>
      <point x="628" y="159"/>
      <point x="576" y="85"/>
      <point x="521" y="124" type="curve" smooth="yes"/>
      <point x="492" y="145"/>
      <point x="461" y="167"/>
      <point x="430" y="188" type="curve" smooth="yes"/>
      <point x="375" y="227"/>
      <point x="427" y="301"/>
    </contour>
  </outline>
</glyph>
<glyph name="brokenbar" format="2">
  <advance width="315"/>
  <unicode hex="00A6"/>
  <outline>
    <contour>
      <point x="203" y="238" type="curve" smooth="yes"/>
      <point x="203" y="173"/>
      <point x="203" y="75"/>
      <point x="203" y="-9" type="curve" smooth="yes"/>
      <point x="203" y="-77"/>
      <point x="113" y="-76"/>
      <point x="113" y="-9" type="curve" smooth="yes"/>
      <point x="113" y="117"/>
      <point x="113" y="195"/>
      <point x="113" y="238" type="curve" smooth="yes"/>
      <point x="113" y="306"/>
      <point x="203" y="306"/>
    </contour>
    <contour>
      <point x="203" y="592" type="curve" smooth="yes"/>
      <point x="203" y="465"/>
      <point x="203" y="394"/>
      <point x="203" y="344" type="curve" smooth="yes"/>
      <point x="203" y="277"/>
      <point x="113" y="277"/>
      <point x="113" y="344" type="curve" smooth="yes"/>
      <point x="113" y="418"/>
      <point x="113" y="507"/>
      <point x="113" y="592" type="curve" smooth="yes"/>
      <point x="113" y="660"/>
      <point x="203" y="660"/>
    </contour>
  </outline>
</glyph>
<glyph name="multiply" format="2">
  <advance width="517"/>
  <unicode hex="00D7"/>
  <outline>
    <contour>
      <point x="141" y="432" type="curve" smooth="yes"/>
      <point x="252" y="354"/>
      <point x="348" y="286"/>
      <point x="429" y="229" type="curve" smooth="yes"/>
      <point x="484" y="190"/>
      <point x="432" y="116"/>
      <point x="377" y="155" type="curve" smooth="yes"/>
      <point x="266" y="233"/>
      <point x="170" y="301"/>
      <point x="89" y="358" type="curve" smooth="yes"/>
      <point x="34" y="397"/>
      <point x="86" y="471"/>
    </contour>
    <contour>
      <point x="429" y="358" type="curve" smooth="yes"/>
      <point x="348" y="301"/>
      <point x="252" y="233"/>
      <point x="141" y="155" type="curve" smooth="yes"/>
      <point x="86" y="116"/>
      <point x="34" y="190"/>
      <point x="89" y="229" type="curve" smooth="yes"/>
      <point x="170" y="286"/>
      <point x="266" y="354"/>
      <point x="377" y="432" type="curve" smooth="yes"/>
      <point x="432" y="471"/>
      <point x="484" y="397"/>
    </contour>
  </outline>
</glyph>
<glyph name="Thorn" format="2">
  <advance width="555"/>
  <unicode hex="00DE"/>
  <outline>
    <contour>
      <point x="129" y="241" type="curve" smooth="yes"/>
      <point x="201" y="241"/>
      <point x="259" y="241"/>
      <point x="307" y="241" type="curve" smooth="yes"/>
      <point x="373" y="241"/>
      <point x="430" y="267"/>
      <point x="430" y="315" type="curve" smooth="yes"/>
      <point x="430" y="362"/>
      <point x="370" y="389"/>
      <point x="295" y="389" type="curve" smooth="yes"/>
      <point x="265" y="389"/>
      <point x="239" y="389"/>
      <point x="219" y="389" type="curve" smooth="yes"/>
      <point x="103" y="389"/>
      <point x="80" y="429"/>
      <point x="80" y="477" type="curve" smooth="yes"/>
      <point x="80" y="501"/>
      <point x="170" y="725"/>
      <point x="170" y="446" type="curve" smooth="yes"/>
      <point x="170" y="307"/>
      <point x="170" y="196"/>
      <point x="170" y="104" type="curve" smooth="yes"/>
      <point x="170" y="36"/>
      <point x="80" y="37"/>
      <point x="80" y="104" type="curve" smooth="yes"/>
      <point x="80" y="240"/>
      <point x="80" y="353"/>
      <point x="80" y="446" type="curve" smooth="yes"/>
      <point x="80" y="471"/>
      <point x="170" y="730"/>
      <point x="170" y="477" type="curve" smooth="yes"/>
      <point x="170" y="475"/>
      <point x="213" y="479"/>
      <point x="219" y="479" type="curve" smooth="yes"/>
      <point x="248" y="479"/>
      <point x="275" y="479"/>
      <point x="295" y="479" type="curve" smooth="yes"/>
      <point x="438" y="479"/>
      <point x="520" y="406"/>
      <point x="520" y="315" type="curve" smooth="yes"/>
      <point x="520" y="221"/>
      <point x="435" y="151"/>
      <point x="307" y="151" type="curve" smooth="yes"/>
      <point x="235" y="151"/>
      <point x="177" y="151"/>
      <point x="129" y="151" type="curve" smooth="yes"/>
      <point x="62" y="151"/>
      <point x="62" y="241"/>
    </contour>
  </outline>
</glyph>
<glyph name="eth" format="2">
  <advance width="551"/>
  <unicode hex="00F0"/>
  <outline>
    <contour>
      <point x="259" y="603" type="curve" smooth="yes"/>
      <point x="287" y="588"/>
      <point x="314" y="572"/>
      <point x="338" y="555" type="curve" smooth="yes"/>
      <point x="448" y="479"/>
      <point x="512" y="389"/>
      <point x="512" y="265" type="curve" smooth="yes"/>
      <point x="512" y="157"/>
      <point x="423" y="55"/>
      <point x="270" y="55" type="curve" smooth="yes"/>
      <point x="130" y="55"/>
      <point x="39" y="136"/>
      <point x="39" y="243" type="curve" smooth="yes"/>
      <point x="39" y="353"/>
      <point x="140" y="432"/>
      <point x="265" y="432" type="curve" smooth="yes"/>
      <point x="405" y="432"/>
      <point x="528" y="338"/>
      <point x="504" y="217" type="curve" smooth="yes"/>
      <point x="491" y="151"/>
      <point x="403" y="168"/>
      <point x="416" y="235" type="curve" smooth="yes"/>
      <point x="428" y="299"/>
      <point x="339" y="342"/>
      <point x="265" y="342" type="curve" smooth="yes"/>
      <point x="195" y="342"/>
      <point x="129" y="305"/>
      <point x="129" y="243" type="curve" smooth="yes"/>
      <point x="129" y="181"/>
      <point x="189" y="145"/>
      <point x="270" y="145" type="curve" smooth="yes"/>
      <point x="364" y="145"/>
      <point x="422" y="199"/>
      <point x="422" y="265" type="curve" smooth="yes"/>
      <point x="422" y="359"/>
      <point x="370" y="423"/>
      <point x="286" y="481" type="curve" smooth="yes"/>
      <point x="265" y="496"/>
      <point x="241" y="510"/>
      <point x="215" y="525" type="curve" smooth="yes"/>
      <point x="156" y="557"/>
      <point x="200" y="636"/>
    </contour>
    <contour>
      <point x="457" y="499" type="curve" smooth="yes"/>
      <point x="364" y="476"/>
      <point x="272" y="452"/>
      <point x="185" y="429" type="curve" smooth="yes"/>
      <point x="120" y="413"/>
      <point x="97" y="500"/>
      <point x="163" y="517" type="curve" smooth="yes"/>
      <point x="256" y="540"/>
      <point x="348" y="564"/>
      <point x="435" y="587" type="curve" smooth="yes"/>
      <point x="500" y="603"/>
      <point x="523" y="516"/>
    </contour>
  </outline>
</glyph>
<glyph name="circumflex" format="2">
  <advance width="562"/>
  <unicode hex="02C6"/>
  <outline>
    <contour>
      <point x="135" y="538" type="curve" smooth="yes"/>
      <point x="257" y="613" type="line" smooth="yes"/>
      <point x="272" y="622"/>
      <point x="290" y="622"/>
      <point x="305" y="613" type="curve" smooth="yes"/>
      <point x="427" y="538" type="line" smooth="yes"/>
      <point x="484" y="503"/>
      <point x="437" y="426"/>
      <point x="379" y="462" type="curve" smooth="yes"/>
      <point x="257" y="537" type="line"/>
      <point x="305" y="537" type="line"/>
      <point x="183" y="462" type="line" smooth="yes"/>
      <point x="125" y="426"/>
      <point x="78" y="503"/>
    </contour>
  </outline>
</glyph>
<glyph name="quotedblleft" format="2">
  <advance width="474"/>
  <unicode hex="201C"/>
  <outline>
    <contour>
      <point x="194" y="500" type="curve" smooth="yes"/>
      <point x="178" y="482"/>
      <point x="153" y="439"/>
      <point x="170" y="429" type="curve" smooth="yes"/>
      <point x="226" y="392"/>
      <point x="177" y="316"/>
      <point x="120" y="353" type="curve" smooth="yes"/>
      <point x="55" y="396"/>
      <point x="62" y="482"/>
      <point x="124" y="558" type="curve" smooth="yes"/>
      <point x="167" y="610"/>
      <point x="237" y="553"/>
    </contour>
    <contour>
      <point x="394" y="500" type="curve" smooth="yes"/>
      <point x="378" y="482"/>
      <point x="353" y="439"/>
      <point x="370" y="429" type="curve" smooth="yes"/>
      <point x="426" y="392"/>
      <point x="377" y="316"/>
      <point x="320" y="353" type="curve" smooth="yes"/>
      <point x="255" y="396"/>
      <point x="262" y="482"/>
      <point x="324" y="558" type="curve" smooth="yes"/>
      <point x="367" y="610"/>
      <point x="437" y="553"/>
    </contour>
  </outline>
</glyph>
<glyph name="quotedblright" format="2">
  <advance width="474"/>
  <unicode hex="201D"/>
  <outline>
    <contour>
      <point x="80" y="420" type="curve" smooth="yes"/>
      <point x="96" y="438"/>
      <point x="121" y="481"/>
      <point x="104" y="491" type="curve" smooth="yes"/>
      <point x="48" y="528"/>
      <point x="97" y="604"/>
      <point x="154" y="567" type="curve" smooth="yes"/>
      <point x="219" y="524"/>
      <point x="212" y="438"/>
      <point x="150" y="362" type="curve" smooth="yes"/>
      <point x="107" y="310"/>
      <point x="37" y="367"/>
    </contour>
    <contour>
      <point x="280" y="420" type="curve" smooth="yes"/>
      <point x="296" y="438"/>
      <point x="321" y="481"/>
      <point x="304" y="491" type="curve" smooth="yes"/>
      <point x="248" y="528"/>
      <point x="297" y="604"/>
      <point x="354" y="567" type="curve" smooth="yes"/>
      <point x="419" y="524"/>
      <point x="412" y="438"/>
      <point x="350" y="362" type="curve" smooth="yes"/>
      <point x="307" y="310"/>
      <point x="237" y="367"/>
    </contour>
  </outline>
</glyph>
<glyph name="quotedblbase" format="2">
  <advance width="474"/>
  <unicode hex="201E"/>
  <outline>
    <contour>
      <point x="80" y="22" type="curve" smooth="yes"/>
      <point x="95" y="39"/>
      <point x="120" y="82"/>
      <point x="105" y="92" type="curve" smooth="yes"/>
      <point x="48" y="128"/>
      <point x="96" y="204"/>
      <point x="153" y="168" type="curve" smooth="yes"/>
      <point x="218" y="127"/>
      <point x="212" y="41"/>
      <point x="150" y="-36" type="curve" smooth="yes"/>
      <point x="107" y="-88"/>
      <point x="37" y="-31"/>
    </contour>
    <contour>
      <point x="280" y="22" type="curve" smooth="yes"/>
      <point x="295" y="39"/>
      <point x="320" y="82"/>
      <point x="305" y="92" type="curve" smooth="yes"/>
      <point x="248" y="128"/>
      <point x="296" y="204"/>
      <point x="353" y="168" type="curve" smooth="yes"/>
      <point x="418" y="127"/>
      <point x="412" y="41"/>
      <point x="350" y="-36" type="curve" smooth="yes"/>
      <point x="307" y="-88"/>
      <point x="237" y="-31"/>
    </contour>
  </outline>
</glyph>
<glyph name="guilsinglright" format="2">
  <advance width="397"/>
  <unicode hex="203A"/>
  <outline>
    <contour>
      <point x="76" y="156" type="curve" smooth="yes"/>
      <point x="293" y="294" type="line"/>
      <point x="293" y="218" type="line"/>
      <point x="76" y="358" type="line" smooth="yes"/>
      <point x="19" y="395"/>
      <point x="68" y="470"/>
      <point x="124" y="434" type="curve" smooth="yes"/>
      <point x="341" y="294" type="line" smooth="yes"/>
      <point x="369" y="276"/>
      <point x="369" y="236"/>
      <point x="341" y="218" type="curve" smooth="yes"/>
      <point x="124" y="80" type="line" smooth="yes"/>
      <point x="67" y="44"/>
      <point x="19" y="120"/>
    </contour>
  </outline>
</glyph>
<glyph name="minus" format="2">
  <advance width="476"/>
  <unicode hex="2212"/>
  <outline>
    <contour>
      <point x="396" y="246" type="curve" smooth="yes"/>
      <point x="80" y="246" type="line" smooth="yes"/>
      <point x="12" y="246"/>
      <point x="13" y="336"/>
      <point x="80" y="336" type="curve" smooth="yes"/>
      <point x="396" y="336" type="line" smooth="yes"/>
      <point x="464" y="336"/>
      <point x="464" y="246"/>
    </contour>
  </outline>
</glyph>
<glyph name="divisionslash" format="2">
  <advance width="518"/>
  <unicode hex="2215"/>
  <outline>
    <contour>
      <point x="483" y="537" type="curve" smooth="yes"/>
      <point x="465" y="512"/>
      <point x="447" y="488"/>
      <point x="427" y="461" type="curve" smooth="yes"/>
      <point x="354" y="361"/>
      <point x="279" y="261"/>
      <point x="205" y="161" type="curve" smooth="yes"/>
      <point x="173" y="117"/>
      <point x="140" y="74"/>
      <point x="108" y="28" type="curve" smooth="yes"/>
      <point x="69" y="-27"/>
      <point x="-4" y="24"/>
      <point x="34" y="80" type="curve" smooth="yes"/>
      <point x="66" y="126"/>
      <point x="99" y="169"/>
      <point x="133" y="215" type="curve" smooth="yes"/>
      <point x="207" y="315"/>
      <point x="282" y="415"/>
      <point x="355" y="515" type="curve" smooth="yes"/>
      <point x="373" y="540"/>
      <point x="391" y="564"/>
      <point x="411" y="591" type="curve" smooth="yes"/>
      <point x="450" y="645"/>
      <point x="523" y="592"/>
    </contour>
  </outline>
</glyph>
<glyph name="D" format="2">
  <advance width="686"/>
  <outline>
    <contour>
      <point x="84.98894389373393" y="17.492768234276962" type="curve" smooth="yes"/>
      <point x="84.99448685575126" y="19.610023775656206"/>
      <point x="84.99829033060041" y="28.05849339711513"/>
      <point x="85.0056809466235" y="70.4036042246997" type="curve" smooth="yes"/>
      <point x="85.05566337942403" y="356.78185060525146" type="line" smooth="yes"/>
      <point x="85.06700017219724" y="421.736888846766"/>
      <point x="133.20635041447613" y="469.7056274847714"/>
      <point x="225.0666450409768" y="469.7056274847714" type="curve" smooth="yes"/>
      <point x="325.0666435178897" y="469.7056274847714" type="line" smooth="yes"/>
      <point x="510.19966814506694" y="469.7056274847714"/>
      <point x="636.0561467807631" y="359.5821668029817"/>
      <point x="636.0297381702064" y="208.27197326391095" type="curve" smooth="yes"/>
      <point x="636.0033139815368" y="56.872523711797484"/>
      <point x="512.7691685454524" y="-54.55844122715712"/>
      <point x="318.9925955606816" y="-54.55844122715712" type="curve" smooth="yes"/>
      <point x="264.4587286108737" y="-54.55844122715712"/>
      <point x="236.10934781035647" y="-42.987633651079975"/>
      <point x="210.20222764851772" y="-22.742968102355725" type="curve" smooth="yes"/>
      <point x="151.10563218232514" y="23.43703194425737"/>
      <point x="212.67896557780932" y="102.23249256584744"/>
      <point x="271.7755610440019" y="56.05249251923434" type="curve" smooth="yes"/>
      <point x="283.22701405863415" y="47.10395501757686"/>
      <point x="294.8875614549683" y="45.44155877284288"/>
      <point x="318.9925955606816" y="45.44155877284288" type="curve" smooth="yes"/>
      <point x="448.6690308530472" y="45.44155877284288"/>
      <point x="536.0120564690552" y="106.9720143388244"/>
      <point x="536.0297396932935" y="208.28942655607645" type="curve" smooth="yes"/>
      <point x="536.0472104115116" y="308.3892689598623"/>
      <point x="447.5421103418183" y="369.7056274847714"/>
      <point x="325.0666435178897" y="369.7056274847714" type="curve" smooth="yes"/>
      <point x="225.0666450409768" y="369.7056274847714" type="line" smooth="yes"/>
      <point x="209.16825977792945" y="369.7056274847714"/>
      <point x="185.05762393037443" y="368.0062535137263"/>
      <point x="185.05566185633697" y="356.7643973130859" type="curve" smooth="yes"/>
      <point x="185.00567942353644" y="70.38615093253415" type="line" smooth="yes"/>
      <point x="184.9982622868528" y="27.889087912733626"/>
      <point x="184.99416405341435" y="19.35582289596481"/>
      <point x="184.98860120090174" y="17.23096974497476" type="curve" smooth="yes"/>
      <point x="184.7922523339251" y="-57.7687732354011"/>
      <point x="84.79259502675727" y="-57.50697474609889"/>
    </contour>
  </outline>
</glyph>
<glyph name="G" format="2">
  <advance width="673"/>
  <outline>
    <contour>
      <point x="562.727824806745" y="369.0305395878847" type="curve" smooth="yes"/>
      <point x="539.5002452627812" y="360.8169420873639"/>
      <point x="510.41501440245025" y="358.19100543350027"/>
      <point x="435.56677808166137" y="366.47343083479603" type="curve" smooth="yes"/>
      <point x="271.20830471001415" y="384.66072370482755"/>
      <point x="150.0479412763842" y="312.52624532555893"/>
      <point x="150.02974547340912" y="208.27197326391095" type="curve" smooth="yes"/>
      <point x="150.013018408884" y="112.43295268372516"/>
      <point x="233.83395841244717" y="45.4415587728429"/>
      <point x="362.9925947915226" y="45.44155877284288" type="curve" smooth="yes"/>
      <point x="395.33852005797394" y="45.441558772842875"/>
      <point x="437.4822514806036" y="49.63637773039373"/>
      <point x="464.5438827075976" y="56.59441550203573" type="curve" smooth="yes"/>
      <point x="489.57967114297844" y="63.031572231983816"/>
      <point x="508.005425836039" y="68.97940918346352"/>
      <point x="508.0085129134938" y="86.66706019199025" type="curve" smooth="yes"/>
      <point x="508.017768919568" y="139.70006878098144" type="line" smooth="yes"/>
      <point x="508.01910110426485" y="147.33292488559724"/>
      <point x="508.1620942504576" y="178.78679656440357"/>
      <point x="495.02097786634175" y="178.78679656440357" type="curve" smooth="yes"/>
      <point x="377.0209796635845" y="178.78679656440357" type="line" smooth="yes"/>
      <point x="302.0209796635845" y="178.7867965644036"/>
      <point x="302.0209796635845" y="278.7867965644036"/>
      <point x="377.0209796635845" y="278.7867965644036" type="curve" smooth="yes"/>
      <point x="495.02097786634175" y="278.7867965644036" type="line" smooth="yes"/>
      <point x="587.543820705593" y="278.7867965644036"/>
      <point x="608.027146928001" y="193.42337275321694"/>
      <point x="608.017767396481" y="139.68261548881577" type="curve" smooth="yes"/>
      <point x="608.0085113904067" y="86.64960689982483" type="line" smooth="yes"/>
      <point x="607.9980799891348" y="26.882079866819634"/>
      <point x="574.0430261270606" y="-18.503953948918436"/>
      <point x="489.44574628572457" y="-40.25545383363428" type="curve" smooth="yes"/>
      <point x="454.6205341323286" y="-49.20964951889164"/>
      <point x="404.61808662730016" y="-54.558441227157125"/>
      <point x="362.9925947915226" y="-54.55844122715712" type="curve" smooth="yes"/>
      <point x="168.631284443567" y="-54.5584412271571"/>
      <point x="50.00457567020679" y="64.06834971101807"/>
      <point x="50.02974699649618" y="208.28942655607645" type="curve" smooth="yes"/>
      <point x="50.05658631734816" y="362.0674083184149"/>
      <point x="204.1319029317049" y="492.69352453071303"/>
      <point x="446.56527108841146" y="465.8667563228814" type="curve" smooth="yes"/>
      <point x="482.07570834772514" y="461.9373043808592"/>
      <point x="518.3694924945542" y="459.412849822075"/>
      <point x="529.3894115551261" y="463.30964756979273" type="curve" smooth="yes"/>
      <point x="600.0987425415572" y="488.3134575085069"/>
      <point x="633.4371557931761" y="394.0343495265988"/>
    </contour>
  </outline>
</glyph>
<glyph name="I" format="2">
  <advance width="270"/>
  <outline>
    <contour>
      <point x="84.98913047721715" y="16.808932225369286" type="curve" smooth="yes"/>
      <point x="84.99565885470422" y="18.92618776674853"/>
      <point x="84.99927588877745" y="33.72347725096835"/>
      <point x="85.00740556640287" y="80.30309916131137" type="curve" smooth="yes"/>
      <point x="85.0530685297021" y="341.93260820033396" type="line" smooth="yes"/>
      <point x="85.0614894563842" y="390.1809642925968"/>
      <point x="85.06444461420159" y="401.28435560472116"/>
      <point x="85.06294087729414" y="440.9169338233658" type="curve" smooth="yes"/>
      <point x="85.06009523179114" y="515.9169337693811"/>
      <point x="185.0600951598116" y="515.9207279633852"/>
      <point x="185.0629408053146" y="440.92072801736987" type="curve" smooth="yes"/>
      <point x="185.0641751423304" y="408.38846916040234"/>
      <point x="185.0599792939037" y="381.5196439514333"/>
      <point x="185.05306700661504" y="341.9151549081684" type="curve" smooth="yes"/>
      <point x="185.0074040433158" y="80.28564586914581" type="line" smooth="yes"/>
      <point x="184.99924111353866" y="33.51550316270436"/>
      <point x="184.99521018817737" y="18.626507769074873"/>
      <point x="184.98865510820485" y="16.50059219150933" type="curve" smooth="yes"/>
      <point x="184.7574000828099" y="-58.499051281731454"/>
      <point x="84.7578754518222" y="-58.19071124787149"/>
    </contour>
  </outline>
</glyph>
<glyph name="O" format="2">
  <advance width="736"/>
  <outline>
    <contour>
      <point x="440.8754373513441" y="73.70665664292929" type="curve" smooth="yes"/>
      <point x="475.8965355363851" y="65.13551679541214"/>
      <point x="511.6709224899686" y="76.91684171141642"/>
      <point x="534.5763768671718" y="96.43292143950657" type="curve" smooth="yes"/>
      <point x="567.6359805440131" y="124.60061680635476"/>
      <point x="586.0218570658011" y="163.1274793093401"/>
      <point x="586.0297393125218" y="208.28942655607642" type="curve" smooth="yes"/>
      <point x="586.0468430731459" y="306.28675680873414"/>
      <point x="496.30143276569754" y="369.7056274847714"/>
      <point x="368.066643243734" y="369.7056274847714" type="curve" smooth="yes"/>
      <point x="245.3478091370838" y="369.7056274847714"/>
      <point x="150.04674760605633" y="305.68426920593845"/>
      <point x="150.0297459531815" y="208.27197326391098" type="curve" smooth="yes"/>
      <point x="150.021891145297" y="163.2672389683666"/>
      <point x="170.1762544270776" y="124.85078013801153"/>
      <point x="203.92435544519222" y="96.85865949028089" type="curve" smooth="yes"/>
      <point x="228.66095476450005" y="76.34106437614493"/>
      <point x="265.81478407123706" y="64.2846479098869"/>
      <point x="302.3124184156844" y="73.05039297551423" type="curve" smooth="yes"/>
      <point x="375.23860267671876" y="90.56529089487617"/>
      <point x="398.5917999025346" y="-6.669621453169611"/>
      <point x="325.66561564150027" y="-24.184519372531554" type="curve" smooth="yes"/>
      <point x="256.162505944044" y="-40.87728732363913"/>
      <point x="187.18916503610072" y="-19.182564890937712"/>
      <point x="140.08280850333986" y="19.88946510661033" type="curve" smooth="yes"/>
      <point x="83.70244194916933" y="66.65375628555702"/>
      <point x="50.01662505057992" y="133.10346528098498"/>
      <point x="50.02974747626856" y="208.28942655607642" type="curve" smooth="yes"/>
      <point x="50.055614660698026" y="356.4974768781589"/>
      <point x="181.35593116309687" y="469.7056274847714"/>
      <point x="368.066643243734" y="469.7056274847714" type="curve" smooth="yes"/>
      <point x="561.2281924167023" y="469.7056274847714"/>
      <point x="686.055501382225" y="355.886487211206"/>
      <point x="686.0297377894346" y="208.27197326391098" type="curve" smooth="yes"/>
      <point x="686.0166415758243" y="133.23619613426706"/>
      <point x="654.3587222417076" y="67.11533115574653"/>
      <point x="599.4307750489722" y="20.31520315738465" type="curve" smooth="yes"/>
      <point x="554.304051358721" y="-18.13401172843561"/>
      <point x="486.09895750883646" y="-40.31282954645742"/>
      <point x="417.10284002956894" y="-23.42656947757351" type="curve" smooth="yes"/>
      <point x="344.2529204391918" y="-5.597121486242173"/>
      <point x="368.025517760967" y="91.53610463426062"/>
    </contour>
  </outline>
</glyph>
<glyph name="R" format="2">
  <advance width="641"/>
  <outline>
    <contour>
      <point x="147.98889542003622" y="66.65476220843931" type="curve" smooth="yes"/>
      <point x="147.98926773338513" y="66.65476220843931"/>
      <point x="98.00466551358166" y="64.58869938718108"/>
      <point x="98.00518675227028" y="67.57517709995352" type="curve" smooth="yes"/>
      <point x="98.05553942531378" y="356.0747438240649" type="line" smooth="yes"/>
      <point x="98.06631134919866" y="417.7933217217721"/>
      <point x="144.4355232920782" y="469.7056274847714"/>
      <point x="238.0666445002809" y="469.7056274847714" type="curve" smooth="yes"/>
      <point x="328.0666431295025" y="469.7056274847714" type="line" smooth="yes"/>
      <point x="464.9156124784749" y="469.7056274847714"/>
      <point x="546.0627922727758" y="397.65214102007775"/>
      <point x="546.0464000092238" y="303.7313887240949" type="curve" smooth="yes"/>
      <point x="546.0296061446021" y="207.50963178077475"/>
      <point x="458.2266153024149" y="136.36038969321072"/>
      <point x="360.0259162153883" y="136.36038969321072" type="curve" smooth="yes"/>
      <point x="303.02591708354794" y="136.36038969321072" type="line" smooth="yes"/>
      <point x="225.95940988366976" y="136.36038969321072"/>
      <point x="188.0249445215461" y="191.93406851989073"/>
      <point x="188.01653941560957" y="240.09177841730568" type="curve" smooth="yes"/>
      <point x="188.0083432146539" y="287.05255093580143"/>
      <point x="226.03030620632322" y="342.42640687119285"/>
      <point x="305.00740504093784" y="342.42640687119285" type="curve" smooth="yes"/>
      <point x="309.00740498001437" y="342.42640687119285" type="line" smooth="yes"/>
      <point x="385.3929924166101" y="342.42640687119285"/>
      <point x="424.73297593960126" y="299.77833888036895"/>
      <point x="459.7950218682351" y="219.88960983682216" type="curve" smooth="yes"/>
      <point x="483.96927163608996" y="164.80868006261292"/>
      <point x="513.4318899595048" y="102.08270159593025"/>
      <point x="535.797240498171" y="76.2577244449098" type="curve" smooth="yes"/>
      <point x="537.5170608727759" y="74.27187039798807"/>
      <point x="529.8552347461242" y="65.40551280484975"/>
      <point x="530.6091270913253" y="65.5655026823197" type="curve" smooth="yes"/>
      <point x="603.9752378021459" y="81.1351461967877"/>
      <point x="624.7347624881032" y="-16.68633475097309"/>
      <point x="551.3686517772826" y="-32.25597826544109" type="curve" smooth="yes"/>
      <point x="532.5953250180731" y="-36.24002488300839"/>
      <point x="503.0314665920576" y="-38.65955761186385"/>
      <point x="460.20472870949885" y="10.79191534214646" type="curve" smooth="yes"/>
      <point x="430.430859897218" y="45.17141144909548"/>
      <point x="400.40792114417997" y="106.37474955125163"/>
      <point x="368.22595556402683" y="179.70122723468808" type="curve" smooth="yes"/>
      <point x="353.1007411744564" y="214.16396670383983"/>
      <point x="341.95894433408984" y="242.42640687119285"/>
      <point x="309.00740498001437" y="242.42640687119285" type="curve" smooth="yes"/>
      <point x="305.00740504093784" y="242.42640687119285" type="line" smooth="yes"/>
      <point x="301.688927224595" y="242.42640687119285"/>
      <point x="288.0161935026748" y="242.08244019826722"/>
      <point x="288.01653789252254" y="240.109231709471" type="curve" smooth="yes"/>
      <point x="288.01693161798795" y="237.85335095266927"/>
      <point x="299.41584403488196" y="236.36038969321072"/>
      <point x="303.02591708354794" y="236.36038969321072" type="curve" smooth="yes"/>
      <point x="360.0259162153883" y="236.36038969321072" type="line" smooth="yes"/>
      <point x="401.42128752894564" y="236.36038969321072"/>
      <point x="446.0393222725064" y="263.1876709233571"/>
      <point x="446.0464015323109" y="303.74884201626037" type="curve" smooth="yes"/>
      <point x="446.05411718841225" y="347.9562953190458"/>
      <point x="392.47993065262375" y="369.7056274847714"/>
      <point x="328.0666431295025" y="369.7056274847714" type="curve" smooth="yes"/>
      <point x="238.0666445002809" y="369.7056274847714" type="line" smooth="yes"/>
      <point x="221.31255460335973" y="369.7056274847714"/>
      <point x="198.0574654000373" y="367.10103954467667"/>
      <point x="198.05553790222672" y="356.05729053189935" type="curve" smooth="yes"/>
      <point x="198.0051852291832" y="67.55772380778797" type="line" smooth="yes"/>
      <point x="197.98359994875173" y="-56.11682365296554"/>
      <point x="148.00431347748727" y="-33.34523779156069"/>
      <point x="147.98889542003622" y="-33.34523779156069" type="curve" smooth="yes"/>
      <point x="72.98889542003622" y="-33.34523779156067"/>
      <point x="72.98889542003622" y="66.65476220843932"/>
    </contour>
  </outline>
</glyph>
<glyph name="acute.cap" format="2">
  <advance width="408"/>
  <outline>
    <contour>
      <point x="282" y="672" type="curve" smooth="yes"/>
      <point x="191" y="597" type="line" smooth="yes"/>
      <point x="139" y="554"/>
      <point x="81" y="624"/>
      <point x="133" y="667" type="curve" smooth="yes"/>
      <point x="224" y="742" type="line" smooth="yes"/>
      <point x="276" y="785"/>
      <point x="334" y="715"/>
    </contour>
  </outline>
</glyph>
<glyph name="t.alt" format="2">
  <advance width="336"/>
  <outline>
    <contour>
      <point x="279" y="349" type="curve" smooth="yes"/>
      <point x="255" y="349"/>
      <point x="238" y="349"/>
      <point x="222" y="349" type="curve" smooth="yes"/>
      <point x="177" y="349"/>
      <point x="141" y="349"/>
      <point x="111" y="349" type="curve" smooth="yes"/>
      <point x="90" y="349"/>
      <point x="74" y="349"/>
      <point x="57" y="349" type="curve" smooth="yes"/>
      <point x="-11" y="349"/>
      <point x="-10" y="439"/>
      <point x="57" y="439" type="curve" smooth="yes"/>
      <point x="83" y="439"/>
      <point x="97" y="439"/>
      <point x="111" y="439" type="curve" smooth="yes"/>
      <point x="156" y="439"/>
      <point x="192" y="439"/>
      <point x="222" y="439" type="curve" smooth="yes"/>
      <point x="245" y="439"/>
      <point x="263" y="439"/>
      <point x="279" y="439" type="curve" smooth="yes"/>
      <point x="347" y="439"/>
      <point x="347" y="349"/>
    </contour>
    <contour>
      <point x="336" y="69" type="curve" smooth="yes"/>
      <point x="221" y="30"/>
      <point x="118" y="77"/>
      <point x="118" y="172" type="curve" smooth="yes"/>
      <point x="118" y="288"/>
      <point x="118" y="332"/>
      <point x="118" y="401" type="curve" smooth="yes"/>
      <point x="118" y="445"/>
      <point x="118" y="468"/>
      <point x="118" y="489" type="curve" smooth="yes"/>
      <point x="118" y="557"/>
      <point x="208" y="557"/>
      <point x="208" y="489" type="curve" smooth="yes"/>
      <point x="208" y="457"/>
      <point x="208" y="430"/>
      <point x="208" y="401" type="curve" smooth="yes"/>
      <point x="208" y="297"/>
      <point x="208" y="250"/>
      <point x="208" y="172" type="curve" smooth="yes"/>
      <point x="208" y="139"/>
      <point x="268" y="141"/>
      <point x="308" y="155" type="curve" smooth="yes"/>
      <point x="372" y="176"/>
      <point x="400" y="91"/>
    </contour>
  </outline>
</glyph>
